<?xml version="1.0" standalone="no"?>
<!DOCTYPE svg PUBLIC "-//W3C//DTD SVG 20010904//EN"
 "http://www.w3.org/TR/2001/REC-SVG-20010904/DTD/svg10.dtd">
<svg version="1.0" xmlns="http://www.w3.org/2000/svg"
 width="250.000000pt" height="250.000000pt" viewBox="0 0 250.000000 250.000000"
 preserveAspectRatio="xMidYMid meet">

<g transform="translate(0.000000,250.000000) scale(0.100000,-0.100000)"
fill="#000000" stroke="none">
<path d="M1374 1860 c-11 -5 -26 -21 -32 -37 -20 -49 -302 -1100 -302 -1125 0
-31 10 -45 40 -56 34 -13 65 1 78 35 20 49 302 1100 302 1125 0 12 -4 28 -8
35 -12 19 -55 31 -78 23z"/>
<path d="M877 1695 c-13 -6 -148 -101 -300 -209 -285 -202 -302 -219 -278
-264 10 -18 159 -128 490 -359 57 -40 112 -73 122 -73 32 0 61 37 57 73 -3 29
-24 46 -250 207 -136 96 -247 177 -247 180 0 3 110 83 245 178 257 183 272
198 241 246 -20 29 -49 37 -80 21z"/>
<path d="M1570 1697 c-32 -17 -44 -39 -36 -70 5 -20 65 -68 251 -199 134 -95
244 -175 244 -178 0 -3 -111 -84 -247 -180 -227 -161 -247 -178 -250 -207 -2
-22 3 -38 17 -52 40 -40 17 -52 454 258 104 74 194 144 199 157 8 17 8 31 1
47 -9 20 -557 416 -594 430 -9 3 -26 0 -39 -6z"/>
</g>
</svg>
